<?xml version="1.0" standalone="yes"?>
<svg xmlns="http://www.w3.org/2000/svg" width="497" height="500">
<path style="fill:#000000; stroke:none;" d="M0 0L0 500L497 500L497 0L0 0z"/>
<path style="fill:#00aeed; stroke:none;" d="M29 30L29 471L91 471L91 435C91 429.729 89.9277 423.061 91.564 418C92.7724 414.263 95.8238 411.11 98.1157 408C102.767 401.689 107.443 395.38 112 389C128.332 366.134 145.293 343.705 161.849 321C199.089 269.928 236.382 218.88 273.884 168C288.109 148.702 302.389 129.437 316.424 110C322.615 101.427 329.762 93.1941 335 84L89 84L89 30L29 30z"/>
<path style="fill:#63bc46; stroke:none;" d="M407 30L407 66C407 71.2715 408.072 77.9386 406.436 83C405.228 86.7375 402.176 89.8903 399.884 93C395.233 99.311 390.557 105.62 386 112C369.668 134.865 352.711 157.299 336.151 180C298.9 231.065 261.618 282.12 224.116 333C209.891 352.298 195.611 371.563 181.576 391C175.385 399.573 168.238 407.806 163 417L409 417L409 471L469 471L469 30L407 30z"/>
</svg>
